<svg xmlns="http://www.w3.org/2000/svg" xmlns:xlink="http://www.w3.org/1999/xlink" width="1110" height="623.714" viewBox="0 0 1110 623.714">
  <defs>
    <clipPath id="clip-path">
      <rect id="Rectangle_152" data-name="Rectangle 152" width="1110" height="623.714" transform="translate(-2051 -8217)" fill="#262e58" opacity="0.17"/>
    </clipPath>
  </defs>
  <g id="cover" transform="translate(2051 8217)" clip-path="url(#clip-path)">
    <path id="Path_66" data-name="Path 66" d="M0,0H1110V623.714H0Z" transform="translate(-2051 -8217)" fill="#262e58"/>
    <path id="Intersection_3" data-name="Intersection 3" d="M865.935,518.424c-17.3-9.988-29.3-21.69-26.747-26.113l19.9-41.135-.117-16.9c15.516,20.425,57.842,44.464,82.32,47.528l-14.07,8.182L901.922,528.53c-.664,1.15-2.244,1.694-4.527,1.694C890.9,530.224,878.737,525.815,865.935,518.424Zm-527.8,9.1A5.139,5.139,0,0,1,336,526.307l-6.07-6.22c-.93-.894-.342-.979.064-.99a13.6,13.6,0,0,0,3.674-.628.673.673,0,0,1,.516.179l4.678,4.8a.744.744,0,0,0,.676.181l25.1-6.734a.739.739,0,0,0,.5-.511l6.719-25.077a.662.662,0,0,0-.177-.693L353.3,472.271a.746.746,0,0,0-.677-.181l-25.085,6.7a.7.7,0,0,0-.5.512l-6.719,25.077a.724.724,0,0,0,.186.655l5.025,5.013c2.8,2.482,5.306,1.1,5.809-.78l6.639-24.777a.656.656,0,0,1,.811-.467l2.744.735a.655.655,0,0,1,.468.81l-6.638,24.776c-1.159,4.324-4.144,6.143-8.242,5.045-1.242-.333-2.256-.605-4.638-2.693l-4.838-4.8a4.809,4.809,0,0,1-1.236-4.562l6.719-25.077a4.68,4.68,0,0,1,3.352-3.334l25.095-6.734a4.83,4.83,0,0,1,4.55,1.219l18.365,18.38a4.806,4.806,0,0,1,1.236,4.563l-6.719,25.077a4.677,4.677,0,0,1-3.352,3.333l-25.095,6.734a4.063,4.063,0,0,1-1.248.192A4.538,4.538,0,0,1,338.135,527.522Zm11.289-15.511c-9.512-2.548-10.336-7.443-9.359-11.09a.656.656,0,0,1,.811-.468l2.82.755a.639.639,0,0,1,.5.7c-.352,2.968.543,4.739,6.3,6.28,4.587,1.229,6.814.738,7.469-1.706.373-1.391.081-2.557-6.833-5.176-5.779-2.193-9.121-4.458-7.842-9.234,1.168-4.36,5.558-6.005,11.762-4.343,6.955,1.864,9.732,5.187,8.793,10.5a.614.614,0,0,1-.282.448.643.643,0,0,1-.5.068l-2.82-.755a.624.624,0,0,1-.47-.65c.128-3.189-1.264-4.611-5.737-5.809-5-1.34-6.028.239-6.38,1.555-.423,1.579.132,2.211,6.658,4.927,6.45,2.7,9.275,4.782,8.017,9.482-.927,3.46-3.669,5.273-7.79,5.273A19.947,19.947,0,0,1,349.424,512.011Zm98.11-14.853-19.4-19.181a2.831,2.831,0,0,1-.746-2.779l7.132-26.618a2.881,2.881,0,0,1,2.036-2.034l26.613-7.134a2.924,2.924,0,0,1,2.782.746l19.33,19.444a2.876,2.876,0,0,1,.746,2.778l-1.722,6.43a2.879,2.879,0,0,1-2.036,2.033l-15.944,4.311a1.462,1.462,0,0,1-1.783-1.768l1.753-6.541a1.528,1.528,0,0,0-.393-1.395l-6.1-6.107a1.372,1.372,0,0,0-1.391-.373l-8.337,2.239a1.44,1.44,0,0,0-1.036,1.012l-2.237,8.346a1.44,1.44,0,0,0,.392,1.395l19.631,19.524a1.428,1.428,0,0,1-.644,2.407l-15.9,4a2.943,2.943,0,0,1-.734.094A2.808,2.808,0,0,1,447.534,497.159Zm-63.858.186a4.252,4.252,0,0,1-1.109-.147,4.321,4.321,0,0,1,2.237-8.347,4.287,4.287,0,0,1,3.055,5.292,4.34,4.34,0,0,1-4.18,3.2Zm-3.525-5.267a3.646,3.646,0,0,0,2.55,4.472,3.706,3.706,0,0,0,4.481-2.588,3.64,3.64,0,0,0-7.031-1.884Zm3.736,3.5c.023-.235.2-1.479.206-1.516,0-.284-.04-.455-.379-.545l-.827-.222-.5,1.88-.9-.242,1.26-4.7,1.616.434c.564.15,1.655.443,1.322,1.684a1.143,1.143,0,0,1-1.215.924c.629.208.556.632.507,1.263a5.444,5.444,0,0,0-.107,1.3Zm-.8-3.034.715.191a.656.656,0,0,0,.9-.485.588.588,0,0,0-.505-.82l-.753-.2Zm94.966-202.674L676.591,175.244,776.694,390.3l-65.9,74.033-96.547,19.756ZM597.528,393.163l25.729,37.4,59.18-15.347.568-.328-.089-.155,42.557-43.182-37.266-80.786-90.789,52.416-16.865-24.317L675.58,264l-11.964-25.976L538.961,309.991l50.079,71.458,86.292-49.821,15.465,33.95L667.362,389.1l-31.989,8.473L622.19,378.924ZM384.4,480.886,364.919,461.4a2.877,2.877,0,0,1-.747-2.778L371.3,432a2.876,2.876,0,0,1,2.036-2.034l26.612-7.134a2.923,2.923,0,0,1,2.782.746l4.866,4.849a1.019,1.019,0,0,0,1.689-.434l9.47-35.341a1.431,1.431,0,0,1,2.39-.649l11.667,11.347a2.818,2.818,0,0,1,.784,2.789l-17.771,66.32a2.876,2.876,0,0,1-2.035,2.033l-26.613,7.134a2.925,2.925,0,0,1-2.782-.745Zm11.364-38.5-9.124,2.471a.662.662,0,0,0-.5.512l-2.448,9.136a.735.735,0,0,0,.177.692l6.676,6.666a.744.744,0,0,0,.676.181l9.115-2.434a.659.659,0,0,0,.5-.511l2.448-9.136.037.009a.733.733,0,0,0-.177-.692l-6.667-6.7a.831.831,0,0,0-.714-.192Zm502.121,19.322c-24.357-14.063-39.378-30.754-38.936-33.814l19.068-41.751a7,7,0,0,0,3.139,3.4c3.678,2.124,9.926,1.29,14.074.3,1.774-.433,3.45-.925,5.075-1.443-1.358,1.2-9.843,8.9-10.861,10.431-.337.468-1.506,2.379-1.411,3.361a1.64,1.64,0,0,0,.949,1.342c1.441.832,4.132-.729,5.284-1.92,0,0,2.7-2.615,11.182-10.645,9.188-8.68,12-9.309,14.93-14.379,1.607-2.784-1.677-5.475-4.921-2.841l-7.034,6.212c-2.385,1.606-7.277,3.421-10.805,4.366-2.744.736-8.268,1.922-10.753.487a3,3,0,0,1-1.4-3.2c.378-3.295,3.656-7.367,6.009-9.72a68,68,0,0,1,14.059-10.574c4.182-2.423,9.576-4.877,14.441-5.382,4.658-.492,7.654,1.437,7.6,6.242-.029,1.773-.206,4.719,1.284,5.58,1.243.718,3.58.343,4.849-3.232.469-1.386.089-5.781-1.635-8.765a11.312,11.312,0,0,0-9.038-5.814c-11.9-1.435-27.054,7.711-35.726,15.96l29.257-66.29c10.382,17.262,93.477,65.17,113.546,65.423l-46.619,63.756c-3.592.71-8.694,1.741-12.3,2.244-1.141.138-4.332.615-5.326.041-.646-.373-.951-.88-.578-1.526.337-.469,2.982-1.262,4.322-1.747,4.072-1.427,11.452-3.993,13.576-7.672,2.009-3.479-1.272-10.079-12.719-7.474q-1.838.43-3.528.946a19.283,19.283,0,0,0,2.326-2.767c.8-1.392.452-2.39-.94-3.194a2.049,2.049,0,0,0-1.8.02c-2.182.8-4.091,2.61-5.878,4.1-.765.752-1.579,1.474-2.423,2.245a1.162,1.162,0,0,0-.619.041c-3.008.848-13.678,3.371-16.363,1.821-1.143-.66.238-2.249,1.167-3.17,1.473-1.4,8.46-6.847,10.725-8.589,5.472-4.2,9.659-7.546,15.717-12.068,4.579-3.455,4.358-3.185,5.251-3.928.951-.843,1.754-2.235,1.283-3.369a3.089,3.089,0,0,0-1.276-1.465,3.771,3.771,0,0,0-4.38.585c-31.159,24.7-30.695,24.235-32.7,26.326a17.723,17.723,0,0,1-4.672.285c-1.943-.194-4.011-.858-3.035-2.549a21.171,21.171,0,0,1,4.7-5.041c2.845-2.4,5.622-4.112,8.223-6.321,1.136-.935,2-1.964,1.781-3.545a2.257,2.257,0,0,0-1.16-1.664c-1.293-.746-2.785.116-4.048,1.043a19.566,19.566,0,0,0-2.273,1.87,39.121,39.121,0,0,1-6.314,4.507,24.544,24.544,0,0,1-9.393,3.525,6.633,6.633,0,0,1-4.119-.787c-1.74-1,.443-3.522,1.837-4.9,3.333-3.246,6.552-5.033,10.593-7.67,1.42-.969,2.693-2.024,1.917-3.665a4.47,4.47,0,0,0-.595-.808c-1.432-1.423-3.3-1.175-5.07.056-3.348,2.242-6.042,4.266-8.178,6.015-4.194,3.477-8.682,7.117-9.117,10.511-.317,2.27.773,3.827,2.811,5,4.871,2.813,10.771,1.778,15.411-.977-7.821,8.609-.89,10.953,7.617,9.766-.066.227-.18.426-.245.654-1.177,3.761,2.4,5.828,6.031,6.2a29.929,29.929,0,0,0,10.173-1.086c.186-.091.8-.466-1.058.913-8.229,5.987-14.8,10.144-17.3,12.746a7.08,7.08,0,0,0-.924,1.256,2.438,2.438,0,0,0-.416,2.212,3.463,3.463,0,0,0,2.946,1.9,5.6,5.6,0,0,0,3.281-1.089c1.128-.806.3-.29,6.6-5.467,6.331-5.226,3.68-3.045,10.838-8.324a46.021,46.021,0,0,1,8.673-5.266,32.977,32.977,0,0,1,7.109-2.324c4.182-.7,7.366.674,6.533,2.115-.631,1.093-3.477,2.234-4.661,2.677-4.557,1.81-11.836,3.97-13.329,6.555-2.727,4.722,3.67,7.421,7.013,7.827,4.548.5,9.666-.783,13.992-1.732l-32.569,43.9a3.743,3.743,0,0,1-2.114.4C938.042,478.924,918.854,473.815,897.884,461.707ZM454.993,474.133l-3.751-3.745a.541.541,0,0,1-.142-.522l1.37-5.113a.6.6,0,0,1,.384-.381l5.121-1.367a.469.469,0,0,1,.527.141l3.751,3.745a.541.541,0,0,1,.143.522l-1.37,5.113a.6.6,0,0,1-.384.381l-5.121,1.367a.43.43,0,0,1-.163.031A.471.471,0,0,1,454.993,474.133ZM321.566,463.486l-19.462-19.4a3,3,0,0,1-.859-2.81l7.092-26.468a2.9,2.9,0,0,1,2.11-2.013l26.518-7.079a2.919,2.919,0,0,1,2.782.745l19.425,19.389a2.951,2.951,0,0,1,.821,2.8L352.9,455.119a3.363,3.363,0,0,1-.246.619,2.891,2.891,0,0,1-1.827,1.4l-26.48,7.089a2.825,2.825,0,0,1-2.782-.746ZM353,457l.08.3-.17.035Zm-67.907-9.291-11.58-11.525a2.874,2.874,0,0,1-.746-2.778l4.473-16.693a2.878,2.878,0,0,0-.747-2.779l-4.93-4.907a2.678,2.678,0,0,0-1.291-.749,2.764,2.764,0,0,0-1.491,0l-6.725,1.785a2.876,2.876,0,0,0-2.035,2.033l-4.474,16.693a2.921,2.921,0,0,1-2.035,2.033l-15.791,4.191a1.368,1.368,0,0,1-1.391-.373,1.488,1.488,0,0,1-.355-1.384l9.533-35.726a2.877,2.877,0,0,1,2.036-2.034l26.565-7.106a2.747,2.747,0,0,1,1.379-.033l.225.061a3.071,3.071,0,0,1,1.178.718l19.49,19.446a2.829,2.829,0,0,1,.747,2.779l-9.646,35.7a1.439,1.439,0,0,1-1,1.022,1.287,1.287,0,0,1-.389.059A1.366,1.366,0,0,1,285.095,447.709ZM0,282.724l87.682-23.495,35.739,37.733,16.072-51.615L177.8,235.081l45.385-12.161L162.814,443.977Zm32.021,8.507L154.338,412.342l45.324-166.032-26.8,7.182L142.323,367.505l-83.5-83.457ZM337.2,400.784l.351-.108.062.218Zm693.046-38.342c-19.127-.008-117.579-57.784-111.989-67.466,2.525-4.374,30.313,6.964,62.028,25.274,4.474,2.583,8.82,5.159,12.958,7.748l20.241-20.593,48.983-14.47c1.1-.294,2.941,1.566,3.917,4.581s1.013,5.822-.034,6.144l-.078.021-45.847,13.63-16.652,17.362c19.088,12.743,31.279,23.428,29.413,26.659-.437.757-1.442,1.11-2.935,1.11Zm-46.6-26.663c-.6,1.044,2.02,3.618,5.748,5.77,3.8,2.261,7.369,3.194,7.971,2.151.23-.4-.017-1-.64-1.762l-.328.341c-.373.646-3.174-.242-6.207-1.993s-5.2-3.731-4.828-4.378a.213.213,0,0,1,.135-.121l.3-.29a5.517,5.517,0,0,0-1.07-.124C984.2,335.373,983.81,335.5,983.647,335.779ZM328.6,258.7c-.125,0-.25,0-.376,0-6.578-.1-19.285-10.286-16.044-30.129,2.891-17.5,27.174-39.852,33.621-45.54.54-.536,1.127-1.085,1.748-1.691-18.3-8.985-60.046-16.579-72.449-42.06-3.489-7.182-4.784-26.251,11.862-53.012C300.988,63.78,323.4,43.4,345.16,28.422,381.7,3.275,426.626.284,440.092,24.258c13.219,23.6-.622,59.732-25.91,78.147-22.491,16.444-43.668,20.455-52.946,19.957-10.574-.589-17.99-5.449-20.323-8.687-.927-1.268-2.52-3.383-1.235-4.609.777-.746,1.18-.707,4.319,1.337,3.012,1.931,14.154,6.282,31.332-.423,45.056-17.648,63.355-61.234,49.307-78.254-9.8-11.946-47.213-8.475-85.963,25.772-47.284,41.816-44.247,65.014-42.417,73.669,4.994,23.75,38.455,27.987,59.461,41.04.289.167.533.346.822.514,2.6-2.508,5.367-5.155,8.051-7.732,7-6.718,13.668-13.052,16.747-15.98,3.512-9.89,12.722-22.237,21.118-24.486,13.46-3.607,14.035,16.974,14.035,16.974s.03-.987.395-1.085,1.2-3.01,5.753-2.617c4.717.448,4.508,3.683,4.64,3.99.2.58-.264,19.094.551,30.71.4,5.516,2.022,9.19,2.3,9.117.41-.109.923-1.666,1.307-3.333l-.012-.047s.3-1.253.778-3.485c-.025-.09-.055.162-.13.427.042-.207.118-.472.2-.886.575-2.6,1.313-6.416,2.1-11.128,1.529-9.261,7.3-44.845,7.546-48.675s-.1-7.653.083-9.364,4.925-4.253,10.823-5.785,7.163.819,7.344,1.309-.824,8.24-.143,13.339,1.935,7.4,3.6,11.41c1.1,2.639,3.7,5.609,6.75,8.95,3.4-11.574,9.016-33.519,8.634-39.139a58.026,58.026,0,0,1,.084-9.363c.177-1.71,4.925-4.254,10.822-5.785s7.163.819,7.343,1.308-.823,8.241-.142,13.34,1.935,7.4,3.595,11.41c1.41,3.437,5.465,7.436,9.612,12.145a62,62,0,0,1,24.813-13.251c26.382-7.217,45.875,5.85,49.3,21.559,2.787,12.409-7.093,20.436-9.094,21.362-1.433.677-2.242.944-2.788-.182-.357-.785.08-1.342,1.567-2.914s5.846-6.652,5.02-13.57c-.815-6.873-10.043-21.42-36.252-17.575-12.231,1.81-21.1,5.946-27.455,10.877a35.14,35.14,0,0,1,5.325,10.017c2.5,7.887-1.44,15.253-6.018,20.979a37.495,37.495,0,0,1-8.5,7.706c-2.1,1.639-5.016,3.545-7.374,3.688-5.243.328-9.063-3.342-8.291-13.966.42-5.736,3.527-15.128,10.168-24.291-3.026-3.444-6.258-6.93-8.344-10.333a94.876,94.876,0,0,1-5.983-11.015,250.965,250.965,0,0,1-8.608,31.942c-.293.91-.634,1.832-.939,2.7a39.12,39.12,0,0,1,6.778,11.974,21.325,21.325,0,0,1-3.986,20.532,38.885,38.885,0,0,1-7.921,7.307,32.761,32.761,0,0,1-10.062,5.337c-2.814,1-5.6,1.55-7.47.778-2.515-.989-3.326-2.923-2.952-5.908.3-2.525,5.109-12.323,9.091-20.824,1.084-2.344,2.109-4.722,2.989-6.914a.143.143,0,0,1-.07-.079s.683-1.65,1.781-4.487c-3.379-4.034-7.343-8.058-9.782-12.05a94.806,94.806,0,0,1-5.984-11.015s-2.219,20.009-5.723,36.5c-2.7,12.753-4.661,20.566-5.6,24l.037.137s-.119.472-.391,1.278c-.13.426-.173.634-.173.634l-.012-.046c-1.158,3.342-3.968,10.013-8.257,11.162-11.727,3.142-13.819-21.825-13.819-21.825s-1.063,9.723-2.911,18.336c-1.486,7.049-2.921,13.009-9.217,14.7-1.78.478-4.667,1.2-7.638-.4-6.753-3.668-14.39-15.56-16.258-25.818-1.615-8.761-1.88-15.048-1.376-20.464-2.763,2.648-5.908,5.69-9.1,8.942-1.656,1.667-3.313,3.333-4.924,4.987.083.125.2.191.281.316,7.33,8.012,14.086,28.111,7.785,46.573C365.73,244,348.925,258.7,328.6,258.7Zm26.37-72.113s-.158.14-.461.466c-1.836,1.91-3.322,3.482-4.358,4.542-4.479,4.819-11.134,12.47-15.841,20.089-7.741,12.54-6.267,26.62.007,28.314,5.847,1.563,16.69-5.059,22.628-16.48,6.273-12,6.646-25.205-.857-38.062C355.7,185.854,355.309,186.205,354.971,186.588Zm42.689-42.541c-2.019,3.965-4.654,13.473-5.089,20.974-.85,14.9,4.841,28.29,8.255,28.255,4-.044,5.268-19.946,6.269-27.891.627-4.961,2.472-26.728.154-28.993a1.719,1.719,0,0,0-1.26-.485C403.82,135.907,400.279,138.86,397.66,144.047ZM467.9,164.006c-1.677,3.775-6.2,12.273-6.2,12.273s-.68,1.111-.208,1.229c.634.172,1.664-.544,2.725-1.513,2.972-3.144,9.34-10.767,7.2-18.947-.073-.274-.18-.49-.241-.718C469.989,159.193,468.874,161.79,467.9,164.006Zm32.742-17.429c-1.272,7.481-.834,9.662.249,10.057,4-2.783,10.317-8.584,7.612-18.863a17.09,17.09,0,0,0-2.187-4.7A36.806,36.806,0,0,0,500.645,146.577Zm309.63-12.285L878.7,0l134.292,68.426L944.568,202.718Zm91.875,17.324c-.04,9.193,4.7,18.633,16.424,24.6,11.96,6.094,24.07,4.41,29.843-6.921,5.377-10.551,1.749-18.327-6.646-28.382l-2.46-2.952c-4.219-5.133-5.778-7.853-3.853-11.63,1.557-3.057,5.087-4.2,8.774-2.325,3.627,1.848,5.186,4.568,5.375,9.534l13.039-1.284c-.41-9.422-4.745-15.143-12.779-19.236-11.241-5.728-22.13-2.214-26.957,7.258-5.24,10.282-1.7,18.238,5.439,26.748l2.459,2.953c4.488,5.5,7.125,8.766,4.926,13.082-1.849,3.627-6.534,4.524-11.75,1.867-6.205-3.162-8.078-8.232-8.53-14.013ZM856.8,130.208c-.224,7.852,2.963,16.046,13.065,21.193,11.181,5.7,21.894,3.642,28.553-9.428L920.364,98.9l-12.62-6.43-21.857,42.9c-3.222,6.325-6.685,6.6-10.822,4.492-4.347-2.215-4.633-6.1-4.825-10.614ZM54.28,179.691,16.354,146.278l37.41-115.4,107.923,45.81L104.661,183.762ZM41.786,132.859,66.07,152.854,97.093,156.5l21.087-39.676-31.337-13.3.1.008,38.286-.1,6.992-12.722L64.147,61.817,60.134,75.8,94.675,90.465l-2.148-.017L55.449,90.2l-4.512,13.443.068,0-.011.029,46.679,19.98-8.389,16.871-17.21-2.2-13.2-10.013,3.671-11.146L48.8,111.327Zm390.281,42.315c-.036.177-.077.34-.079.34S432.007,175.422,432.067,175.174Z" transform="translate(-2031.207 -8168.656)" fill="#02061c"/>
  </g>
</svg>
